<svg width="38" height="38" viewBox="0 0 38 38" fill="none" xmlns="http://www.w3.org/2000/svg">
<path d="M6.11787 26.0538C4.75937 20.6198 4.08012 17.9043 5.5067 16.0772C6.9317 14.25 9.7342 14.25 15.3345 14.25H22.6653C28.2671 14.25 31.0665 14.25 32.493 16.0772C33.9196 17.9028 33.2404 20.6213 31.8819 26.0538C31.0174 29.5102 30.5867 31.2376 29.2979 32.2446C28.009 33.25 26.2278 33.25 22.6653 33.25H15.3345C11.772 33.25 9.9907 33.25 8.70187 32.2446C7.41304 31.2376 6.98079 29.5102 6.11787 26.0538Z" stroke="#553311" stroke-width="1.5"/>
<path d="M30.875 15.0417L29.7508 10.9171C29.317 9.32587 29.1001 8.53104 28.6552 7.93096C28.2116 7.33478 27.6091 6.87551 26.9167 6.60571C26.22 6.33337 25.3967 6.33337 23.75 6.33337M7.125 15.0417L8.24917 10.9171C8.683 9.32587 8.89992 8.53104 9.34483 7.93096C9.78845 7.33478 10.3909 6.87551 11.0833 6.60571C11.78 6.33337 12.6033 6.33337 14.25 6.33337" stroke="#553311" stroke-width="1.5"/>
<path d="M14.25 6.33333C14.25 5.91341 14.4168 5.51068 14.7137 5.21375C15.0107 4.91681 15.4134 4.75 15.8333 4.75H22.1667C22.5866 4.75 22.9893 4.91681 23.2863 5.21375C23.5832 5.51068 23.75 5.91341 23.75 6.33333C23.75 6.75326 23.5832 7.15599 23.2863 7.45292C22.9893 7.74985 22.5866 7.91667 22.1667 7.91667H15.8333C15.4134 7.91667 15.0107 7.74985 14.7137 7.45292C14.4168 7.15599 14.25 6.75326 14.25 6.33333Z" stroke="#553311" stroke-width="1.5"/>
</svg>
