<svg width="27" height="24" viewBox="0 0 27 24" fill="none" xmlns="http://www.w3.org/2000/svg">
<path d="M16.3004 0.900005H26.3004V13.3C26.3004 16.6333 25.6337 19.1667 24.3004 20.9C22.8337 22.7 20.3671 23.7333 16.9004 24V18.1C18.1004 18.1 19.1004 17.6 19.9004 16.6C20.3004 16.0667 20.5004 15.0333 20.5004 13.5V11.6H16.3004V0.900005ZM0.700389 0.900005H10.7004V13.3C10.7004 16.6333 10.1004 19.0667 8.90039 20.6C7.30039 22.6 4.76706 23.7333 1.30039 24V18.1C3.36706 18.1 4.53372 17.0667 4.80039 15C4.86706 14.7333 4.90039 14.2333 4.90039 13.5V11.6H0.700389V0.900005Z" fill="#A6896C"/>
</svg>
