<svg width="34" height="34" viewBox="0 0 34 34" fill="none" xmlns="http://www.w3.org/2000/svg">
<g clip-path="url(#clip0_18_290)">
<path d="M6.35933 27.0558C7.91767 25.9338 9.57133 25.0471 11.3203 24.3957C13.0693 23.7442 14.9626 23.4179 17 23.4167C19.0374 23.4154 20.9307 23.7418 22.6797 24.3957C24.4287 25.0496 26.0823 25.9357 27.6407 27.054C28.8507 25.8024 29.8242 24.3236 30.5612 22.6173C31.2982 20.9087 31.6667 19.0362 31.6667 17C31.6667 12.9361 30.2385 9.47539 27.3822 6.61784C24.5258 3.76028 21.0651 2.33211 17 2.33334C12.9349 2.33456 9.47417 3.76334 6.61783 6.61967C3.7615 9.476 2.33333 12.9361 2.33333 17C2.33333 19.0374 2.70183 20.9093 3.43883 22.6155C4.17583 24.3217 5.14933 25.8018 6.35933 27.0558ZM17.0018 17.9167C15.4569 17.9167 14.1534 17.3862 13.0913 16.3253C12.0292 15.2644 11.4988 13.9622 11.5 12.4185C11.5012 10.8748 12.0317 9.57134 13.0913 8.508C14.151 7.44467 15.4533 6.91423 16.9982 6.91667C18.5431 6.91911 19.8466 7.44956 20.9087 8.508C21.9708 9.56645 22.5012 10.8687 22.5 12.4148C22.4988 13.9609 21.9683 15.2644 20.9087 16.3253C19.849 17.3862 18.5467 17.9167 17.0018 17.9167ZM17 33.5C14.6986 33.5 12.5444 33.0716 10.5375 32.2148C8.53061 31.3593 6.78406 30.1884 5.29783 28.7022C3.81283 27.2159 2.64194 25.4694 1.78517 23.4625C0.928389 21.4556 0.5 19.3014 0.5 17C0.5 14.6986 0.928389 12.5444 1.78517 10.5375C2.64194 8.53061 3.81283 6.78406 5.29783 5.29784C6.78283 3.81161 8.52939 2.64072 10.5375 1.78517C12.5456 0.929614 14.6998 0.501225 17 0.500003C19.3002 0.49878 21.4544 0.927169 23.4625 1.78517C25.4706 2.64317 27.2172 3.81406 28.7022 5.29784C30.1872 6.78406 31.3581 8.53061 32.2148 10.5375C33.0716 12.5444 33.5 14.6986 33.5 17C33.5 19.3014 33.0716 21.4556 32.2148 23.4625C31.3581 25.4694 30.1872 27.2159 28.7022 28.7022C27.2159 30.1872 25.4694 31.3581 23.4625 32.2148C21.4556 33.0716 19.3014 33.5 17 33.5ZM17 31.6667C18.6903 31.6667 20.3532 31.3709 21.9885 30.7793C23.6238 30.1878 25.0379 29.3787 26.2308 28.352C25.0392 27.3962 23.6605 26.6403 22.0948 26.0842C20.5292 25.5281 18.8309 25.25 17 25.25C15.1691 25.25 13.4653 25.5219 11.8887 26.0658C10.312 26.6097 8.93883 27.3718 7.76917 28.352C8.96083 29.3787 10.3749 30.1878 12.0115 30.7793C13.6481 31.3709 15.3109 31.6667 17 31.6667ZM17 16.0833C18.0291 16.0833 18.8975 15.7295 19.6052 15.0218C20.3128 14.3142 20.6667 13.4458 20.6667 12.4167C20.6667 11.3876 20.3128 10.5192 19.6052 9.8115C18.8975 9.10384 18.0291 8.75 17 8.75C15.9709 8.75 15.1025 9.10384 14.3948 9.8115C13.6872 10.5192 13.3333 11.3876 13.3333 12.4167C13.3333 13.4458 13.6872 14.3142 14.3948 15.0218C15.1025 15.7295 15.9709 16.0833 17 16.0833Z" fill="#553311"/>
</g>
<defs>
<clipPath id="clip0_18_290">
<rect width="34" height="34" fill="white"/>
</clipPath>
</defs>
</svg>
