<svg width="20" height="13" viewBox="0 0 20 13" fill="none" xmlns="http://www.w3.org/2000/svg">
<path d="M19.178 6.14341C19.1514 6.08247 18.5014 4.64106 17.0499 3.1895C15.703 1.84419 13.3889 0.239502 9.99989 0.239502C6.61082 0.239502 4.29676 1.84419 2.94989 3.1895C1.49832 4.64106 0.848323 6.08013 0.821761 6.14341C0.795052 6.20341 0.78125 6.26835 0.78125 6.33403C0.78125 6.39971 0.795052 6.46466 0.821761 6.52466C0.848323 6.58481 1.49832 8.02622 2.94989 9.47778C4.29676 10.8231 6.61082 12.427 9.99989 12.427C13.3889 12.427 15.703 10.8231 17.0499 9.47778C18.5014 8.02622 19.1514 6.58716 19.178 6.52466C19.2047 6.46466 19.2185 6.39971 19.2185 6.33403C19.2185 6.26835 19.2047 6.20341 19.178 6.14341ZM9.99989 11.4895C7.54832 11.4895 5.4077 10.5973 3.6366 8.83872C2.89416 8.10087 2.2659 7.25642 1.77254 6.33325C2.26576 5.41022 2.89404 4.56602 3.6366 3.82856C5.4077 2.06919 7.54832 1.177 9.99989 1.177C12.4514 1.177 14.5921 2.06919 16.3632 3.82856C17.1057 4.56602 17.734 5.41022 18.2272 6.33325C17.7296 7.28716 15.2343 11.4895 9.99989 11.4895ZM9.99989 2.7395C9.28911 2.7395 8.59429 2.95027 8.0033 3.34516C7.41232 3.74004 6.9517 4.30131 6.67969 4.95798C6.40769 5.61465 6.33652 6.33724 6.47519 7.03436C6.61385 7.73148 6.95613 8.37182 7.45872 8.87442C7.96132 9.37701 8.60166 9.71928 9.29878 9.85795C9.9959 9.99661 10.7185 9.92545 11.3752 9.65344C12.0318 9.38144 12.5931 8.92082 12.988 8.32983C13.3829 7.73884 13.5936 7.04403 13.5936 6.33325C13.5924 5.38051 13.2134 4.46715 12.5397 3.79346C11.866 3.11977 10.9526 2.74074 9.99989 2.7395ZM9.99989 8.9895C9.47453 8.9895 8.96097 8.83372 8.52415 8.54184C8.08733 8.24997 7.74688 7.83512 7.54583 7.34975C7.34479 6.86439 7.29218 6.3303 7.39467 5.81504C7.49717 5.29978 7.75015 4.82648 8.12163 4.455C8.49312 4.08352 8.96641 3.83053 9.48168 3.72804C9.99694 3.62555 10.531 3.67815 11.0164 3.8792C11.5018 4.08024 11.9166 4.4207 12.2085 4.85752C12.5003 5.29434 12.6561 5.80789 12.6561 6.33325C12.6561 7.03773 12.3763 7.71336 11.8781 8.2115C11.38 8.70965 10.7044 8.9895 9.99989 8.9895Z" fill="#553311"/>
</svg>
