<svg width="35" height="30" viewBox="0 0 35 30" fill="none" xmlns="http://www.w3.org/2000/svg">
<path d="M25.1834 0C21.9733 0 19.1627 1.38783 17.4107 3.73369C15.6588 1.38783 12.8482 0 9.63807 0C7.08278 0.00289558 4.63297 1.02471 2.82611 2.84127C1.01924 4.65783 0.00288013 7.12078 0 9.68979C0 20.6299 16.1344 29.4851 16.8215 29.8508C17.0026 29.9487 17.2051 30 17.4107 30C17.6164 30 17.8188 29.9487 17.9999 29.8508C18.687 29.4851 34.8214 20.6299 34.8214 9.68979C34.8186 7.12078 33.8022 4.65783 31.9953 2.84127C30.1885 1.02471 27.7386 0.00289558 25.1834 0ZM17.4107 27.3189C14.5721 25.656 2.48725 18.0808 2.48725 9.68979C2.48971 7.78385 3.24389 5.9567 4.5844 4.609C5.92491 3.2613 7.74231 2.50307 9.63807 2.50059C12.6616 2.50059 15.2002 4.11972 16.2604 6.72033C16.3541 6.94965 16.5134 7.14579 16.7183 7.28382C16.9231 7.42186 17.1641 7.49556 17.4107 7.49556C17.6573 7.49556 17.8983 7.42186 18.1032 7.28382C18.308 7.14579 18.4674 6.94965 18.5611 6.72033C19.6213 4.11503 22.1598 2.50059 25.1834 2.50059C27.0791 2.50307 28.8965 3.2613 30.237 4.609C31.5775 5.9567 32.3317 7.78385 32.3342 9.68979C32.3342 18.0683 20.2462 25.6545 17.4107 27.3189Z" fill="#553311"/>
</svg>
